<svg width="256" height="256" viewBox="0 0 24 24" fill="currentColor" xmlns="http://www.w3.org/2000/svg">
<path d="M4 16C4 15.4477 4.44772 15 5 15H19C19.5523 15 20 15.4477 20 16V20C20 21.1046 19.1046 22 18 22H6C4.89543 22 4 21.1046 4 20V16Z"/>
<path d="M12.4332 7.41871C12.143 6.90313 11.7584 6.09687 11.2332 5.41871C10.2332 4.11871 9.00001 4.11871 8.00001 5.41871C7.00001 6.71871 7.2332 8.41871 8.4332 9.41871C9.6332 10.4187 11.4332 10.1187 12.4332 8.91871L12.4332 7.41871Z" />
<path d="M17.4332 9.41871C16.9031 8.82394 16.3195 7.8994 15.7332 7.41871C14.7332 6.61871 13.5 7.11871 12.7 8.11871C11.9 9.11871 12.2 10.6187 13.2 11.4187C14.2 12.2187 15.7 11.9187 16.5 10.9187L17.4332 9.41871Z" />
<path d="M8.7332 11.4187C8.16301 10.8872 7.68053 9.94042 7.2332 9.41871C6.2332 8.51871 5.00001 9.11871 4.20001 10.1187C3.40001 11.1187 3.70001 12.6187 4.70001 13.4187C5.70001 14.2187 7.20001 13.9187 8.00001 12.9187L8.7332 11.4187Z" />
<path d="M12.8 4.41871C12.4464 3.86901 12.0016 3.03362 11.4 2.41871C10.4 1.41871 9.10001 1.71871 8.30001 2.71871C7.50001 3.71871 7.80001 5.11871 8.80001 5.91871C9.80001 6.71871 11.1 6.41871 11.9 5.41871L12.8 4.41871Z" />
</svg>
